<mxfile host="app.diagrams.net" modified="2024-02-22T12:06:45.272Z" agent="Mozilla/5.0 (Windows NT 10.0; Win64; x64) AppleWebKit/537.36 (KHTML, like Gecko) Chrome/121.0.0.0 Safari/537.36" etag="0baoKRJkZolCFt5hCygB" version="23.1.5" type="device">
  <diagram name="PÃ¡gina-1" id="a3kqKr89rX7ECwZtsSd4">
    <mxGraphModel dx="880" dy="460" grid="1" gridSize="10" guides="1" tooltips="1" connect="1" arrows="1" fold="1" page="1" pageScale="1" pageWidth="827" pageHeight="1169" math="0" shadow="0">
      <root>
        <mxCell id="0" />
        <mxCell id="1" parent="0" />
        <mxCell id="qT83YV5vC8s_lbWJ6oI5-1" value="Aluno" style="shape=umlActor;verticalLabelPosition=bottom;verticalAlign=top;html=1;" vertex="1" parent="1">
          <mxGeometry x="90" y="170" width="30" height="60" as="geometry" />
        </mxCell>
        <mxCell id="qT83YV5vC8s_lbWJ6oI5-4" value="Consultar Notas" style="ellipse;whiteSpace=wrap;html=1;" vertex="1" parent="1">
          <mxGeometry x="280" y="165" width="140" height="70" as="geometry" />
        </mxCell>
        <mxCell id="qT83YV5vC8s_lbWJ6oI5-5" value="" style="endArrow=block;startArrow=block;endFill=1;startFill=1;html=1;rounded=0;exitX=0.5;exitY=0.5;exitDx=0;exitDy=0;exitPerimeter=0;" edge="1" parent="1" source="qT83YV5vC8s_lbWJ6oI5-1">
          <mxGeometry width="160" relative="1" as="geometry">
            <mxPoint x="120" y="199.5" as="sourcePoint" />
            <mxPoint x="280" y="199.5" as="targetPoint" />
            <Array as="points" />
          </mxGeometry>
        </mxCell>
        <mxCell id="qT83YV5vC8s_lbWJ6oI5-6" value="Dados do aluno" style="edgeLabel;html=1;align=center;verticalAlign=middle;resizable=0;points=[];" vertex="1" connectable="0" parent="qT83YV5vC8s_lbWJ6oI5-5">
          <mxGeometry x="0.225" relative="1" as="geometry">
            <mxPoint x="-22" y="-10" as="offset" />
          </mxGeometry>
        </mxCell>
      </root>
    </mxGraphModel>
  </diagram>
</mxfile>
